<?xml version="1.0" encoding="UTF-8"?>
<svg width="18px" height="18px" viewBox="0 0 18 18" version="1.1" xmlns="http://www.w3.org/2000/svg" xmlns:xlink="http://www.w3.org/1999/xlink">
    <!-- Generator: Sketch 50.2 (55047) - http://www.bohemiancoding.com/sketch -->
    <title>user copy</title>
    <desc>Created with Sketch.</desc>
    <defs></defs>
    <g id="Page-1" stroke="none" stroke-width="1" fill="none" fill-rule="evenodd" opacity="0.30321558">
        <g id="VietACC_productDetail_" transform="translate(-812.000000, -22.000000)" fill="#000000" fill-rule="nonzero">
            <g id="user-copy" transform="translate(812.000000, 22.000000)">
                <path d="M8.99985,0 C4.02942716,0 0,4.0295203 0,8.99991 C0,13.9701797 4.02942716,18 8.99985,18 C13.9702728,18 18,13.9701797 18,8.99991 C18,4.02940029 13.9702728,0 8.99985,0 Z M8.99985,3.54885549 C10.501735,3.54885549 11.7194553,4.76638766 11.7194553,6.26838268 C11.7194553,7.77055771 10.501915,8.98808988 8.99985,8.98808988 C7.49778496,8.98808988 6.28030467,7.77055771 6.28030467,6.26838268 C6.28030467,4.76638766 7.49796497,3.54885549 8.99985,3.54885549 Z M10.1216287,12.7535475 L10.1215687,12.7535475 L10.1215687,13.7381574 L10.1215687,13.8598386 L9.02571043,13.8598386 L8.97386956,13.8598386 L5.03162386,13.8598386 C5.03162386,11.1793718 6.48976816,10.2255423 7.44636411,9.36921369 C7.90981183,9.61821618 8.43830064,9.76107761 8.99991,9.76527765 C9.56139936,9.76107761 10.0900082,9.61821618 10.5531559,9.36921369 C10.981743,9.75279753 11.5103518,10.1564816 11.9638394,10.7255873 L11.5273321,10.7255873 L11.5273321,11.3480335 L11.5273321,12.1311013 L10.7440791,12.1311013 L10.1216287,12.1311013 L10.1216287,12.7535475 Z M13.1342789,13.7381574 L13.1342789,15.1436714 L12.1496625,15.1436714 L12.1496625,13.7381574 L10.7439591,13.7381574 L10.7439591,12.7535475 L12.1496625,12.7535475 L12.1496625,11.3480335 L13.1341589,11.3480335 L13.1341589,12.7535475 L14.5395623,12.7535475 L14.5395623,13.7381574 L13.1342789,13.7381574 Z" id="Shape"></path>
            </g>
        </g>
    </g>
</svg>