<?xml version="1.0" encoding="UTF-8"?>
<svg width="17px" height="17px" viewBox="0 0 17 17" version="1.1" xmlns="http://www.w3.org/2000/svg" xmlns:xlink="http://www.w3.org/1999/xlink">
    <!-- Generator: Sketch 50.2 (55047) - http://www.bohemiancoding.com/sketch -->
    <title>phone-call copy</title>
    <desc>Created with Sketch.</desc>
    <defs></defs>
    <g id="Page-1" stroke="none" stroke-width="1" fill="none" fill-rule="evenodd">
        <g id="VietACC_productDetail_" transform="translate(-343.000000, -22.000000)" fill="#9B9B9B" fill-rule="nonzero" stroke="#AE0D13" stroke-width="0.5">
            <g id="phone-call-copy" transform="translate(344.000000, 23.000000)">
                <path d="M11.8498734,9.28816456 C11.5429114,8.9685443 11.1726582,8.79765823 10.7802532,8.79765823 C10.3910127,8.79765823 10.0175949,8.96537975 9.69797468,9.285 L8.69797468,10.2818354 C8.6156962,10.2375316 8.53341772,10.1963924 8.4543038,10.1552532 C8.34037975,10.0982911 8.23278481,10.0444937 8.14101266,9.98753165 C7.2043038,9.39259494 6.35303797,8.61727848 5.53658228,7.61411392 C5.14101266,7.11411392 4.87518987,6.69322785 4.6821519,6.26601266 C4.94164557,6.02867089 5.1821519,5.78183544 5.41632911,5.54449367 C5.50493671,5.45588608 5.5935443,5.36411392 5.6821519,5.27550633 C6.34670886,4.61094937 6.34670886,3.75018987 5.6821519,3.08563291 L4.81822785,2.22170886 C4.72012658,2.12360759 4.61886076,2.02234177 4.52392405,1.92107595 C4.33405063,1.72487342 4.13468354,1.52234177 3.92898734,1.33246835 C3.62202532,1.02867089 3.25493671,0.867278481 2.86886076,0.867278481 C2.48278481,0.867278481 2.10936709,1.02867089 1.79291139,1.33246835 C1.78974684,1.33563291 1.78974684,1.33563291 1.78658228,1.33879747 L0.710632911,2.42424051 C0.30556962,2.8293038 0.074556962,3.32297468 0.0239240506,3.89575949 C-0.0520253165,4.81981013 0.220126582,5.68056962 0.428987342,6.24386076 C0.94164557,7.62677215 1.70746835,8.90841772 2.84987342,10.2818354 C4.23594937,11.9368987 5.90367089,13.2438608 7.80873418,14.1647468 C8.53658228,14.5096835 9.50810127,14.9179114 10.5935443,14.9875316 C10.66,14.9906962 10.7296203,14.9938608 10.7929114,14.9938608 C11.5239241,14.9938608 12.1378481,14.7312025 12.6188608,14.2090506 C12.6220253,14.2027215 12.6283544,14.199557 12.631519,14.1932278 C12.7960759,13.9938608 12.9859494,13.813481 13.1853165,13.620443 C13.3213924,13.4906962 13.4606329,13.3546203 13.5967089,13.2122152 C13.91,12.8862658 14.074557,12.506519 14.074557,12.1172785 C14.074557,11.7248734 13.9068354,11.3482911 13.5872152,11.0318354 L11.8498734,9.28816456 Z M12.9827848,12.620443 C12.9796203,12.620443 12.9796203,12.6236076 12.9827848,12.620443 C12.8593671,12.7533544 12.7327848,12.8736076 12.5967089,13.006519 C12.3910127,13.2027215 12.1821519,13.4084177 11.9859494,13.6394304 C11.6663291,13.9812025 11.2897468,14.1425949 10.7960759,14.1425949 C10.7486076,14.1425949 10.6979747,14.1425949 10.6505063,14.1394304 C9.71063291,14.0793038 8.83721519,13.7122152 8.1821519,13.3989241 C6.39101266,12.5318354 4.81822785,11.3008228 3.51126582,9.7406962 C2.4321519,8.44006329 1.71063291,7.23753165 1.23278481,5.94639241 C0.938481013,5.15841772 0.830886076,4.54449367 0.87835443,3.96537975 C0.91,3.59512658 1.05240506,3.28816456 1.31506329,3.02550633 L2.39417722,1.94639241 C2.54924051,1.80082278 2.71379747,1.72170886 2.87518987,1.72170886 C3.07455696,1.72170886 3.23594937,1.84196203 3.33721519,1.94322785 C3.34037975,1.94639241 3.3435443,1.94955696 3.34670886,1.95272152 C3.53974684,2.13310127 3.72329114,2.31981013 3.91632911,2.51917722 C4.01443038,2.62044304 4.1156962,2.72170886 4.21696203,2.82613924 L5.08088608,3.69006329 C5.41632911,4.02550633 5.41632911,4.33563291 5.08088608,4.67107595 C4.98911392,4.7628481 4.90050633,4.85462025 4.80873418,4.94322785 C4.54291139,5.21537975 4.28974684,5.4685443 4.01443038,5.71537975 C4.00810127,5.72170886 4.00177215,5.72487342 3.99860759,5.73120253 C3.7264557,6.00335443 3.77708861,6.26917722 3.83405063,6.44955696 C3.83721519,6.45905063 3.84037975,6.4685443 3.8435443,6.47803797 C4.06822785,7.02234177 4.38468354,7.535 4.8656962,8.14575949 L4.86886076,8.14892405 C5.74227848,9.22487342 6.66316456,10.063481 7.67898734,10.7058861 C7.80873418,10.7881646 7.94164557,10.8546203 8.06822785,10.9179114 C8.1821519,10.9748734 8.28974684,11.0286709 8.38151899,11.0856329 C8.39417722,11.091962 8.40683544,11.1014557 8.41949367,11.1077848 C8.52708861,11.1615823 8.62835443,11.1868987 8.73278481,11.1868987 C8.99544304,11.1868987 9.16,11.0223418 9.21379747,10.9685443 L10.2960759,9.88626582 C10.4036709,9.77867089 10.574557,9.64892405 10.7739241,9.64892405 C10.9701266,9.64892405 11.131519,9.77234177 11.2296203,9.87993671 C11.2327848,9.88310127 11.2327848,9.88310127 11.2359494,9.88626582 L12.9796203,11.6299367 C13.3055696,11.9527215 13.3055696,12.285 12.9827848,12.620443 Z" id="Shape"></path>
                <path d="M8.10303797,3.56664557 C8.9321519,3.70588608 9.68531646,4.09829114 10.2865823,4.69955696 C10.8878481,5.30082278 11.2770886,6.05398734 11.4194937,6.88310127 C11.4543038,7.09196203 11.6346835,7.23753165 11.8403797,7.23753165 C11.8656962,7.23753165 11.8878481,7.23436709 11.9131646,7.23120253 C12.1473418,7.19322785 12.3024051,6.97170886 12.2644304,6.73753165 C12.0935443,5.73436709 11.6188608,4.81981013 10.8941772,4.09512658 C10.1694937,3.37044304 9.25493671,2.89575949 8.25177215,2.72487342 C8.01759494,2.68689873 7.79924051,2.84196203 7.75810127,3.07297468 C7.71696203,3.30398734 7.86886076,3.52867089 8.10303797,3.56664557 Z" id="Shape"></path>
                <path d="M14.9764557,6.61411392 C14.6948101,4.96221519 13.9163291,3.45905063 12.7201266,2.2628481 C11.5239241,1.06664557 10.0207595,0.288164557 8.36886076,0.00651898734 C8.1378481,-0.0346202532 7.91949367,0.123607595 7.87835443,0.354620253 C7.84037975,0.588797468 7.99544304,0.807151899 8.22962025,0.848291139 C9.7043038,1.09829114 11.0492405,1.79765823 12.1188608,2.86411392 C13.188481,3.93373418 13.8846835,5.27867089 14.1346835,6.75335443 C14.1694937,6.96221519 14.3498734,7.10778481 14.5555696,7.10778481 C14.5808861,7.10778481 14.603038,7.10462025 14.6283544,7.1014557 C14.8593671,7.06664557 15.0175949,6.84512658 14.9764557,6.61411392 Z" id="Shape"></path>
            </g>
        </g>
    </g>
</svg>